<svg xmlns="http://www.w3.org/2000/svg" width="512" height="512" data-name="Layer 1" viewBox="0 0 24 24"><path d="M2 14a10 10 0 1 0 11-9.949V2h3V0H8v2h3v2.051A10.013 10.013 0 0 0 2 14Zm18 0c0 .362-1.366 1.2-4 1.67v-3.34c2.634.47 4 1.308 4 1.67Zm-6 1.922a25.354 25.354 0 0 1-4 0v-3.844a25.354 25.354 0 0 1 4 0ZM4 14c0-.362 1.366-1.2 4-1.67v3.34C5.366 15.2 4 14.362 4 14Zm8-4c-.665 0-1.336.026-2 .075V6.263a7.736 7.736 0 0 1 4 0v3.812A27.257 27.257 0 0 0 12 10ZM8 7.082V10.3a14.946 14.946 0 0 0-3.5.933A8.042 8.042 0 0 1 8 7.082Zm-3.5 9.682A14.946 14.946 0 0 0 8 17.7v3.221a8.042 8.042 0 0 1-3.5-4.157Zm5.5 4.973v-3.812c.664.049 1.335.075 2 .075s1.336-.026 2-.075v3.812a7.736 7.736 0 0 1-4 0Zm6-.819V17.7a14.946 14.946 0 0 0 3.5-.933 8.042 8.042 0 0 1-3.5 4.151Zm3.5-9.682A14.946 14.946 0 0 0 16 10.3V7.082a8.042 8.042 0 0 1 3.5 4.154Z"/></svg>