<svg xmlns="http://www.w3.org/2000/svg" width="512" height="512" data-name="Layer 1" viewBox="0 0 24 24"><path d="M24 20c0 2.206-1.794 4-4 4H7.854l2.045-2h10.102c1.103 0 2-.897 2-2s-.897-2-2-2h-5c-2.206 0-4-1.794-4-4a4.006 4.006 0 0 1 3.187-3.916L16.147 12h-1.146c-1.103 0-2 .897-2 2s.897 2 2 2h5c2.206 0 4 1.794 4 4ZM22.535 8.536a5.005 5.005 0 0 0 0-7.071C21.591.521 20.335.001 19 .001s-2.591.52-3.536 1.464a5.009 5.009 0 0 0 .008 7.079L19 11.994l3.535-3.458Zm-1.414-5.657a3 3 0 0 1 .008 4.235L19 9.196l-2.122-2.074a3.005 3.005 0 0 1 0-4.243C17.445 2.312 18.198 2 19 2s1.555.312 2.121.878ZM8.535 20.536a5.005 5.005 0 0 0 0-7.071c-.944-.944-2.2-1.464-3.535-1.464s-2.591.52-3.536 1.464a5.009 5.009 0 0 0 .008 7.079L5 23.994l3.535-3.458Zm-1.414-5.657a3 3 0 0 1 .008 4.235L5 21.196l-2.122-2.074a3.005 3.005 0 0 1 0-4.243C3.445 14.312 4.198 14 5 14s1.555.312 2.121.878Z"/></svg>